<svg width="216" height="131" viewBox="0 0 216 131" fill="none" xmlns="http://www.w3.org/2000/svg">
<path fill-rule="evenodd" clip-rule="evenodd" d="M131.907 25.7558C124.132 10.471 108.254 0 89.93 0C67.6649 0 49.0108 15.4601 44.1171 36.231C19.497 37.7531 0 58.2028 0 83.2062C0 101.483 10.4178 117.327 25.6392 125.123C31.0319 128.391 37.3585 130.272 44.1245 130.272H47.0661H180.28C200.008 130.272 216 114.28 216 94.5525C216 79.0455 206.118 65.8464 192.309 60.9086C187.841 39.5637 168.913 23.5331 146.241 23.5331C141.243 23.5331 136.426 24.3123 131.907 25.7558Z" fill="white"/>
</svg>
