<svg width="57" height="56" viewBox="0 0 57 56" fill="none" xmlns="http://www.w3.org/2000/svg">
<circle cx="28.7899" cy="27.912" r="27.412" fill="white" stroke="#CECECE"/>
<path d="M44.5667 28.2704C44.5667 27.1518 44.4642 26.0761 44.274 25.0435H29.1123V31.146H37.7761C37.4029 33.1181 36.2687 34.7889 34.5638 35.9076V39.866H39.7665C42.8105 37.1195 44.5667 33.075 44.5667 28.2704Z" fill="#4285F4"/>
<path d="M29.1116 43.6883C33.4582 43.6883 37.1022 42.2756 39.7658 39.8661L34.5631 35.9077C33.1216 36.8542 31.2776 37.4136 29.1116 37.4136C24.9187 37.4136 21.3698 34.6384 20.1039 30.9094H14.7256V34.9969C17.3745 40.1529 22.8186 43.6883 29.1116 43.6883Z" fill="#34A853"/>
<path d="M20.1042 30.9097C19.7823 29.9631 19.5993 28.952 19.5993 27.9122C19.5993 26.8724 19.7823 25.8612 20.1042 24.9147V20.8271H14.7259C13.5991 23.0256 13.0127 25.4519 13.0137 27.9122C13.0137 30.4579 13.6357 32.8674 14.7259 34.9972L20.1042 30.9097Z" fill="#FBBC05"/>
<path d="M29.1116 18.4104C31.4751 18.4104 33.5972 19.2064 35.2656 20.7697L39.8828 16.2448C37.0949 13.699 33.4508 12.1357 29.1116 12.1357C22.8186 12.1357 17.3745 15.6711 14.7256 20.8271L20.1039 24.9146C21.3698 21.1856 24.9187 18.4104 29.1116 18.4104Z" fill="#EA4335"/>
</svg>
