<svg width="155" height="149" viewBox="0 0 155 149" fill="none" xmlns="http://www.w3.org/2000/svg">
<g filter="url(#filter0_d_353_4)">
<rect x="12" y="70" width="123" height="65" rx="5" fill="#F9F0F0"/>
</g>
<g filter="url(#filter1_d_353_4)">
<rect x="6" y="34" width="135" height="31" rx="5" fill="#F9F8F0"/>
</g>
<g filter="url(#filter2_d_353_4)">
<rect x="60" y="46" width="28" height="77" fill="white"/>
</g>
<g filter="url(#filter3_i_353_4)">
<path d="M74 32.6115C74.1606 32.6008 74.3393 32.5766 74.5352 32.5374M74.5352 32.5374C77.3893 31.9668 83.8882 28.215 91 16.6115C100.5 1.1115 111.5 2.1115 115 4.1115C118.5 6.1115 122 8.61151 122 16.6115C122 24.2273 114.5 29.6115 109.5 31.6115C105.5 33.2115 84.5235 32.8955 74.5352 32.5374Z" stroke="#F9F0F0" stroke-width="5"/>
</g>
<g filter="url(#filter4_i_353_4)">
<path d="M74 33.0962C73.8394 33.0853 73.6607 33.0607 73.4648 33.0209M73.4648 33.0209C70.6107 32.4409 64.1118 28.6278 57 16.8343C47.5 1.08059 36.5 2.09696 33 4.1297C29.5 6.16243 26 8.70336 26 16.8343C26 24.5747 33.5 30.0471 38.5 32.0798C42.5 33.706 63.4765 33.3848 73.4648 33.0209Z" stroke="#F9F0F0" stroke-width="5"/>
</g>
<defs>
<filter id="filter0_d_353_4" x="6" y="64" width="143" height="85" filterUnits="userSpaceOnUse" color-interpolation-filters="sRGB">
<feFlood flood-opacity="0" result="BackgroundImageFix"/>
<feColorMatrix in="SourceAlpha" type="matrix" values="0 0 0 0 0 0 0 0 0 0 0 0 0 0 0 0 0 0 127 0" result="hardAlpha"/>
<feOffset dx="4" dy="4"/>
<feGaussianBlur stdDeviation="5"/>
<feComposite in2="hardAlpha" operator="out"/>
<feColorMatrix type="matrix" values="0 0 0 0 0 0 0 0 0 0 0 0 0 0 0 0 0 0 0.25 0"/>
<feBlend mode="normal" in2="BackgroundImageFix" result="effect1_dropShadow_353_4"/>
<feBlend mode="normal" in="SourceGraphic" in2="effect1_dropShadow_353_4" result="shape"/>
</filter>
<filter id="filter1_d_353_4" x="0" y="28" width="155" height="51" filterUnits="userSpaceOnUse" color-interpolation-filters="sRGB">
<feFlood flood-opacity="0" result="BackgroundImageFix"/>
<feColorMatrix in="SourceAlpha" type="matrix" values="0 0 0 0 0 0 0 0 0 0 0 0 0 0 0 0 0 0 127 0" result="hardAlpha"/>
<feOffset dx="4" dy="4"/>
<feGaussianBlur stdDeviation="5"/>
<feComposite in2="hardAlpha" operator="out"/>
<feColorMatrix type="matrix" values="0 0 0 0 0 0 0 0 0 0 0 0 0 0 0 0 0 0 0.25 0"/>
<feBlend mode="normal" in2="BackgroundImageFix" result="effect1_dropShadow_353_4"/>
<feBlend mode="normal" in="SourceGraphic" in2="effect1_dropShadow_353_4" result="shape"/>
</filter>
<filter id="filter2_d_353_4" x="54" y="40" width="48" height="97" filterUnits="userSpaceOnUse" color-interpolation-filters="sRGB">
<feFlood flood-opacity="0" result="BackgroundImageFix"/>
<feColorMatrix in="SourceAlpha" type="matrix" values="0 0 0 0 0 0 0 0 0 0 0 0 0 0 0 0 0 0 127 0" result="hardAlpha"/>
<feOffset dx="4" dy="4"/>
<feGaussianBlur stdDeviation="5"/>
<feComposite in2="hardAlpha" operator="out"/>
<feColorMatrix type="matrix" values="0 0 0 0 0 0 0 0 0 0 0 0 0 0 0 0 0 0 0.25 0"/>
<feBlend mode="normal" in2="BackgroundImageFix" result="effect1_dropShadow_353_4"/>
<feBlend mode="normal" in="SourceGraphic" in2="effect1_dropShadow_353_4" result="shape"/>
</filter>
<filter id="filter3_i_353_4" x="73.8337" y="0.489014" width="54.6663" height="38.8386" filterUnits="userSpaceOnUse" color-interpolation-filters="sRGB">
<feFlood flood-opacity="0" result="BackgroundImageFix"/>
<feBlend mode="normal" in="SourceGraphic" in2="BackgroundImageFix" result="shape"/>
<feColorMatrix in="SourceAlpha" type="matrix" values="0 0 0 0 0 0 0 0 0 0 0 0 0 0 0 0 0 0 127 0" result="hardAlpha"/>
<feOffset dx="4" dy="4"/>
<feGaussianBlur stdDeviation="5"/>
<feComposite in2="hardAlpha" operator="arithmetic" k2="-1" k3="1"/>
<feColorMatrix type="matrix" values="0 0 0 0 0 0 0 0 0 0 0 0 0 0 0 0 0 0 0.25 0"/>
<feBlend mode="normal" in2="shape" result="effect1_innerShadow_353_4"/>
</filter>
<filter id="filter4_i_353_4" x="23.5" y="0.487915" width="54.669" height="39.3279" filterUnits="userSpaceOnUse" color-interpolation-filters="sRGB">
<feFlood flood-opacity="0" result="BackgroundImageFix"/>
<feBlend mode="normal" in="SourceGraphic" in2="BackgroundImageFix" result="shape"/>
<feColorMatrix in="SourceAlpha" type="matrix" values="0 0 0 0 0 0 0 0 0 0 0 0 0 0 0 0 0 0 127 0" result="hardAlpha"/>
<feOffset dx="4" dy="4"/>
<feGaussianBlur stdDeviation="5"/>
<feComposite in2="hardAlpha" operator="arithmetic" k2="-1" k3="1"/>
<feColorMatrix type="matrix" values="0 0 0 0 0 0 0 0 0 0 0 0 0 0 0 0 0 0 0.25 0"/>
<feBlend mode="normal" in2="shape" result="effect1_innerShadow_353_4"/>
</filter>
</defs>
</svg>
